<?xml version="1.0" encoding="UTF-8"?>
<svg width="1358.9" height="1357.9" version="1.1" viewBox="0 0 359.54 359.28" xmlns="http://www.w3.org/2000/svg">
 <g transform="translate(112.04 111.9)">
  <g transform="translate(-829.73 -220.12)">
   <g transform="translate(-702.54 -3301.8)" fill-rule="evenodd" stroke-width="0">
    <path d="m1444.4 3499.8 38.893-22.455 38.893 22.455v179.64l-38.893 22.455-38.893-22.455v-179.64" fill="#ffd230"/>
    <path d="m1483.3 3477.3 116.68-67.364 2e-4 44.909-77.786 44.91-38.893-22.455" fill="#fee685"/>
    <path d="m1600 3410 2e-4 44.909 77.786 44.91 38.893-22.455-116.68-67.364" fill="#ffba00"/>
    <path d="m1677.8 3499.8v179.64l38.893 22.455 38.893-22.455 1e-4 -179.64-38.893-22.455-38.893 22.455" fill="#973c00"/>
    <path d="m1677.8 3499.8-155.57 134.73v-134.73l77.786-44.91 77.786 44.91" fill="#fd9a00"/>
    <path d="m1561.1 3600.8 116.68 78.592v-179.64l-116.68 101.05" fill="#e17100"/>
    <path d="m1522.2 3679.4 77.786 44.91 77.786-44.91-116.68-78.592-38.893 33.682v44.91" fill="#bb4d00"/>
    <path d="m1483.3 3701.9 38.893-22.455 77.786 44.91-2e-4 44.91-116.68-67.364" fill="#7b3306"/>
    <path d="m1600 3769.3 116.68-67.364-38.893-22.455-77.786 44.91-2e-4 44.91" fill="#461901"/>
   </g>
  </g>
 </g>
</svg>
